{
    "asset" : {
        "generator" : "Khronos glTF Blender I/O v1.6.16",
        "version" : "2.0"
    },
    "scene" : 0,
    "scenes" : [
        {
            "name" : "Scene",
            "nodes" : [
                0
            ]
        }
    ],
    "nodes" : [
        {
            "mesh" : 0,
            "name" : "wood",
            "scale" : [
                0.5999999642372131,
                0.008999999612569809,
                0.29999998211860657
            ]
        }
    ],
    "materials" : [
        {
            "doubleSided" : true,
            "name" : "wood",
            "pbrMetallicRoughness" : {
                "baseColorTexture" : {
                    "index" : 0
                },
                "metallicFactor" : 0,
                "roughnessFactor" : 0.25
            }
        },
        {
            "doubleSided" : true,
            "name" : "hand",
            "pbrMetallicRoughness" : {
                "baseColorFactor" : [
                    0.014995008707046509,
                    0.014995008707046509,
                    0.014995008707046509,
                    1
                ],
                "metallicFactor" : 0.20000000298023224,
                "roughnessFactor" : 0.07999999821186066
            }
        },
        {
            "doubleSided" : true,
            "name" : "blackmetal",
            "pbrMetallicRoughness" : {
                "baseColorFactor" : [
                    0.0514075830578804,
                    0.0514075830578804,
                    0.0514075830578804,
                    1
                ],
                "metallicFactor" : 0.8500000238418579,
                "roughnessFactor" : 0.20000000298023224
            }
        },
        {
            "doubleSided" : true,
            "name" : "metal",
            "pbrMetallicRoughness" : {
                "roughnessFactor" : 0.10000000149011612
            }
        }
    ],
    "meshes" : [
        {
            "name" : "metal.001",
            "primitives" : [
                {
                    "attributes" : {
                        "POSITION" : 0,
                        "NORMAL" : 1,
                        "TEXCOORD_0" : 2
                    },
                    "indices" : 3,
                    "material" : 0
                },
                {
                    "attributes" : {
                        "POSITION" : 4,
                        "NORMAL" : 5,
                        "TEXCOORD_0" : 6
                    },
                    "indices" : 7,
                    "material" : 1
                },
                {
                    "attributes" : {
                        "POSITION" : 8,
                        "NORMAL" : 9,
                        "TEXCOORD_0" : 10
                    },
                    "indices" : 11,
                    "material" : 2
                },
                {
                    "attributes" : {
                        "POSITION" : 12,
                        "NORMAL" : 13,
                        "TEXCOORD_0" : 14
                    },
                    "indices" : 15,
                    "material" : 3
                }
            ]
        }
    ],
    "textures" : [
        {
            "sampler" : 0,
            "source" : 0
        }
    ],
    "images" : [
        {
            "mimeType" : "image/jpeg",
            "name" : "images",
            "uri" : "images.jpg"
        }
    ],
    "accessors" : [
        {
            "bufferView" : 0,
            "componentType" : 5126,
            "count" : 824,
            "max" : [
                1.0000001192092896,
                88.88892364501953,
                1.0000001192092896
            ],
            "min" : [
                -1.0000001192092896,
                86.88890075683594,
                -1.0000001192092896
            ],
            "type" : "VEC3"
        },
        {
            "bufferView" : 1,
            "componentType" : 5126,
            "count" : 824,
            "type" : "VEC3"
        },
        {
            "bufferView" : 2,
            "componentType" : 5126,
            "count" : 824,
            "type" : "VEC2"
        },
        {
            "bufferView" : 3,
            "componentType" : 5123,
            "count" : 4080,
            "type" : "SCALAR"
        },
        {
            "bufferView" : 4,
            "componentType" : 5126,
            "count" : 773,
            "max" : [
                1.0633347034454346,
                70.86125183105469,
                -0.17606334388256073
            ],
            "min" : [
                1.0059211254119873,
                69.6866455078125,
                -0.21130141615867615
            ],
            "type" : "VEC3"
        },
        {
            "bufferView" : 5,
            "componentType" : 5126,
            "count" : 773,
            "type" : "VEC3"
        },
        {
            "bufferView" : 6,
            "componentType" : 5126,
            "count" : 773,
            "type" : "VEC2"
        },
        {
            "bufferView" : 7,
            "componentType" : 5123,
            "count" : 1920,
            "type" : "SCALAR"
        },
        {
            "bufferView" : 8,
            "componentType" : 5126,
            "count" : 20488,
            "max" : [
                1.0060820579528809,
                86.888916015625,
                1.0000001192092896
            ],
            "min" : [
                -0.9106003642082214,
                1.6434316635131836,
                -1.0000001192092896
            ],
            "type" : "VEC3"
        },
        {
            "bufferView" : 9,
            "componentType" : 5126,
            "count" : 20488,
            "type" : "VEC3"
        },
        {
            "bufferView" : 10,
            "componentType" : 5126,
            "count" : 20488,
            "type" : "VEC2"
        },
        {
            "bufferView" : 11,
            "componentType" : 5123,
            "count" : 93624,
            "type" : "SCALAR"
        },
        {
            "bufferView" : 12,
            "componentType" : 5126,
            "count" : 1581,
            "max" : [
                1.0002868175506592,
                80.63436889648438,
                -0.17811109125614166
            ],
            "min" : [
                -0.8569961786270142,
                79.52325439453125,
                -0.2114444226026535
            ],
            "type" : "VEC3"
        },
        {
            "bufferView" : 13,
            "componentType" : 5126,
            "count" : 1581,
            "type" : "VEC3"
        },
        {
            "bufferView" : 14,
            "componentType" : 5126,
            "count" : 1581,
            "type" : "VEC2"
        },
        {
            "bufferView" : 15,
            "componentType" : 5123,
            "count" : 3840,
            "type" : "SCALAR"
        }
    ],
    "bufferViews" : [
        {
            "buffer" : 0,
            "byteLength" : 9888,
            "byteOffset" : 0
        },
        {
            "buffer" : 0,
            "byteLength" : 9888,
            "byteOffset" : 9888
        },
        {
            "buffer" : 0,
            "byteLength" : 6592,
            "byteOffset" : 19776
        },
        {
            "buffer" : 0,
            "byteLength" : 8160,
            "byteOffset" : 26368
        },
        {
            "buffer" : 0,
            "byteLength" : 9276,
            "byteOffset" : 34528
        },
        {
            "buffer" : 0,
            "byteLength" : 9276,
            "byteOffset" : 43804
        },
        {
            "buffer" : 0,
            "byteLength" : 6184,
            "byteOffset" : 53080
        },
        {
            "buffer" : 0,
            "byteLength" : 3840,
            "byteOffset" : 59264
        },
        {
            "buffer" : 0,
            "byteLength" : 245856,
            "byteOffset" : 63104
        },
        {
            "buffer" : 0,
            "byteLength" : 245856,
            "byteOffset" : 308960
        },
        {
            "buffer" : 0,
            "byteLength" : 163904,
            "byteOffset" : 554816
        },
        {
            "buffer" : 0,
            "byteLength" : 187248,
            "byteOffset" : 718720
        },
        {
            "buffer" : 0,
            "byteLength" : 18972,
            "byteOffset" : 905968
        },
        {
            "buffer" : 0,
            "byteLength" : 18972,
            "byteOffset" : 924940
        },
        {
            "buffer" : 0,
            "byteLength" : 12648,
            "byteOffset" : 943912
        },
        {
            "buffer" : 0,
            "byteLength" : 7680,
            "byteOffset" : 956560
        }
    ],
    "samplers" : [
        {
            "magFilter" : 9729,
            "minFilter" : 9987
        }
    ],
    "buffers" : [
        {
            "byteLength" : 964240,
            "uri" : "desk.bin"
        }
    ]
}
